<?xml version="1.0" encoding="UTF-8"?>
<svg version="1.1" xmlns="http://www.w3.org/2000/svg" width="209" height="54">
<path d="M0 0 C2.39129933 1.73953825 4.21632999 3.87950587 6.125 6.125 C6.89263672 6.97964844 6.89263672 6.97964844 7.67578125 7.8515625 C10.78885772 11.3727801 13.63360767 14.93348114 16 19 C15.49302502 23.22479147 14.47490511 24.60952246 11.1875 27.3125 C8 29 8 29 5.60546875 29.4453125 C2.72883496 30.05772929 0.68353444 31.12792238 -1.875 32.5625 C-6.27793394 34.83625394 -9.08951081 35.71611301 -14 35 C-16 33 -16 33 -16.3671875 30.1796875 C-16.19268296 24.27408664 -13.95808893 18.68135259 -12.125 13.125 C-11.57779297 11.39636719 -11.57779297 11.39636719 -11.01953125 9.6328125 C-8.97727316 3.3352312 -8.97727316 3.3352312 -8 1 C-5.05130444 -0.47434778 -3.27893149 -0.44819927 0 0 Z " fill="#2684FF" transform="translate(35,10)"/>
<path d="M0 0 C3.76324419 2.80055382 4.90761255 5.41816125 5.6875 10 C5.86124762 15.17623105 5.51953098 19.49001785 3 24.0625 C-0.89250019 27.32378394 -4.3748331 28.25166041 -9.375 27.875 C-13.24435633 27.25234496 -15.55063391 25.845559 -18.3125 23 C-20.14196058 17.51161827 -20.5194657 10.3895099 -18.55859375 4.8828125 C-14.13600969 -2.08926119 -7.29900589 -2.20347348 0 0 Z M-11.04296875 3.5625 C-12.74547045 6.83130326 -12.67554806 9.32943303 -12.625 13 C-12.62113281 14.216875 -12.61726563 15.43375 -12.61328125 16.6875 C-12.33512473 19.75083414 -12.01403865 21.48099617 -10.3125 24 C-8.47916667 25.16666667 -8.47916667 25.16666667 -6.3125 25 C-3.8994609 23.76203675 -3.8994609 23.76203675 -2.3125 21 C-0.85594093 14.96418687 -1.0358774 9.75146762 -3.3125 4 C-3.9725 3.34 -4.6325 2.68 -5.3125 2 C-9.20627785 1.55322187 -9.20627785 1.55322187 -11.04296875 3.5625 Z " fill="#FFFFFF" transform="translate(125.3125,15)"/>
<path d="M0 0 C0 2.31 0 4.62 0 7 C-1.875 6.6875 -1.875 6.6875 -4 6 C-4.66 5.01 -5.32 4.02 -6 3 C-8.43717258 3.27034634 -8.43717258 3.27034634 -11 4 C-13.38225541 7.57338312 -13.24033109 9.20621014 -13.1875 13.4375 C-13.18105469 14.57058594 -13.17460938 15.70367188 -13.16796875 16.87109375 C-13.03029419 19.43568261 -12.74922106 21.56053624 -12 24 C-10.35 23.67 -8.7 23.34 -7 23 C-6.92572162 19.65747276 -6.93453047 17.1964086 -8 14 C-4.37 14 -0.74 14 3 14 C2.34 18.29 1.68 22.58 1 27 C-4.76490145 27.94334751 -10.27340511 28.47674002 -16 27 C-18.99452434 24.75410675 -19.81623122 23.55130633 -21 20 C-21.14554833 17.8783532 -21.22080412 15.75143294 -21.25 13.625 C-21.27578125 12.50351562 -21.3015625 11.38203125 -21.328125 10.2265625 C-20.9648775 6.65462873 -20.13776379 4.85204032 -18 2 C-12.470589 -1.81792665 -6.27052506 -2.09017502 0 0 Z " fill="#FFFFFF" transform="translate(82,15)"/>
<path d="M0 0 C6.93 0 13.86 0 21 0 C21 2.31 21 4.62 21 7 C18.525 6.505 18.525 6.505 16 6 C16 5.34 16 4.68 16 4 C13.03 3.505 13.03 3.505 10 3 C10 6.3 10 9.6 10 13 C10.99 12.67 11.98 12.34 13 12 C13.33 11.34 13.66 10.68 14 10 C14.99 10 15.98 10 17 10 C17 12.97 17 15.94 17 19 C16.01 19 15.02 19 14 19 C13.67 18.34 13.34 17.68 13 17 C12.01 16.67 11.02 16.34 10 16 C10 19.3 10 22.6 10 26 C10.66 26 11.32 26 12 26 C12 26.66 12 27.32 12 28 C8.04 28 4.08 28 0 28 C0 27.34 0 26.68 0 26 C0.66 25.67 1.32 25.34 2 25 C2.05816623 21.58340509 2.09365195 18.16693795 2.125 14.75 C2.14175781 13.78191406 2.15851563 12.81382813 2.17578125 11.81640625 C2.18222656 10.88183594 2.18867188 9.94726562 2.1953125 8.984375 C2.20578613 8.12553711 2.21625977 7.26669922 2.22705078 6.38183594 C2.10760523 3.61468037 2.10760523 3.61468037 0 0 Z " fill="#FFFFFF" transform="translate(136,14)"/>
<path d="M0 0 C3.63 0 7.26 0 11 0 C10.95875 0.86625 10.9175 1.7325 10.875 2.625 C11.00457721 6.12358468 11.76019656 8.74551597 13 12 C13.66 12 14.32 12 15 12 C15.33730842 10.56342755 15.66969591 9.12569907 16 7.6875 C16.185625 6.88699219 16.37125 6.08648437 16.5625 5.26171875 C17.09495823 2.89304062 17.09495823 2.89304062 17 0 C19.64 0 22.28 0 25 0 C24.35292989 3.79254984 22.56499817 6.41748235 20.5 9.625 C17.18221192 15.14786195 15.90065749 19.5853124 16 26 C16.66 26 17.32 26 18 26 C18 26.66 18 27.32 18 28 C14.04 28 10.08 28 6 28 C6 27.34 6 26.68 6 26 C6.66 25.67 7.32 25.34 8 25 C8.3348556 19.50976345 7.46176972 16.08254673 5 11.1875 C2 5.15277778 2 5.15277778 2 3 C1.34 3 0.68 3 0 3 C0 2.01 0 1.02 0 0 Z " fill="#FFFFFF" transform="translate(159,14)"/>
<path d="M0 0 C4.42709227 3.50685399 8.51408175 6.8119967 11 12 C10.49089395 16.24255042 9.38166925 17.66073844 6.1875 20.5 C3 22 3 22 0.5 21.5 C-0.325 21.005 -1.15 20.51 -2 20 C-3.093125 19.401875 -4.18625 18.80375 -5.3125 18.1875 C-8 16 -8 16 -8.41796875 13.7265625 C-7.85583249 10.05954279 -6.25314843 8.10955188 -4 5.1875 C-3.2575 4.21167969 -2.515 3.23585938 -1.75 2.23046875 C-1.1725 1.49441406 -0.595 0.75835938 0 0 Z " fill="#FB77D6" transform="translate(40,17)"/>
<path d="M0 0 C3.96 0 7.92 0 12 0 C11.67 0.99 11.34 1.98 11 3 C10.85164052 4.77166975 10.75229982 6.54767612 10.68359375 8.32421875 C10.64169922 9.35224609 10.59980469 10.38027344 10.55664062 11.43945312 C10.51732422 12.51130859 10.47800781 13.58316406 10.4375 14.6875 C10.39431641 15.77095703 10.35113281 16.85441406 10.30664062 17.97070312 C10.20053162 20.64700791 10.09847639 23.32340526 10 26 C10.66 26 11.32 26 12 26 C12 26.66 12 27.32 12 28 C8.04 28 4.08 28 0 28 C0 27.34 0 26.68 0 26 C0.66 25.67 1.32 25.34 2 25 C2.05816623 21.58340509 2.09365195 18.16693795 2.125 14.75 C2.14175781 13.78191406 2.15851563 12.81382813 2.17578125 11.81640625 C2.18222656 10.88183594 2.18867187 9.94726562 2.1953125 8.984375 C2.20578613 8.12553711 2.21625977 7.26669922 2.22705078 6.38183594 C2.10760523 3.61468037 2.10760523 3.61468037 0 0 Z " fill="#FFFFFF" transform="translate(89,14)"/>
</svg>
